<?xml version="1.0" encoding="utf-8"?>
<!-- Generator: Adobe Illustrator 22.0.1, SVG Export Plug-In . SVG Version: 6.00 Build 0)  -->
<svg version="1.1" id="OBJECTS" xmlns="http://www.w3.org/2000/svg" xmlns:xlink="http://www.w3.org/1999/xlink" x="0px" y="0px"
	 viewBox="0 0 482.3 435.8" style="enable-background:new 0 0 482.3 435.8;" xml:space="preserve">
<style type="text/css">
	.st0{fill:#EDB162;}
	.st1{fill:#F8C478;}
	.st2{fill:#9B5A50;}
	.st3{fill:#C47F2C;}
	.st4{fill:#58595B;}
	.st5{fill:#FFFFFF;}
	.st6{fill:#7A012A;}
	.st7{fill:#AA183B;}
	.st8{fill:#2C324C;}
	.st9{fill:#5884A4;}
	.st10{fill:none;stroke:#EE2A7B;stroke-miterlimit:10;}
	.st11{fill:#E68B22;}
	.st12{fill:#F9C478;}
	.st13{fill:#E68A21;}
	.st14{fill:#30344B;}
	.st15{fill:#5684A5;}
	.st16{fill:#3E5E79;}
	.st17{fill:#3B4466;}
	.st18{fill:#AACCE0;}
	.st19{fill:#231F20;}
	.st20{fill:#C66A0E;}
	.st21{fill:#21263D;}
	.st22{fill:#E89E46;}
	.st23{opacity:0.5;fill:#FFFFFF;}
	.st24{fill:#683833;}
</style>
<g>
	<path class="st0" d="M189.1,232c0,0,1.2,43.4,0.6,51.6c-0.6,8.1,8.6,6.9,9.2,6.2c0.6-0.8,14-9.1,14.2-9.5c0.2-0.3,3.2-9.3,3.2-9.3
		s-9.8-15.6-9.8-16.2c0-0.6-14.3-23.8-14.3-23.8L189.1,232z"/>
	<g>
		<path class="st1" d="M251.9,195.9c0,0,4.5,10,5,19.4c0,0-2.1,5.8-2.4,10c-0.3,4.2,1.5,7.6,0.7,14.3c-0.8,6.8-19,36.7-19,36.7
			s-17.9-1.4-24.4-4.1c0,0-15.4-13.2-20.8-39.8c0,0-5.3-0.8-6.1-2.1c-0.8-1.3-3-14.2-2.2-17.2c0.8-3,3.1-11.7,5.4-15
			c2.4-3.3,5.9-13,11.6-15.9c5.7-3,9.9-3,12.3-3.7c2.3-0.8,3.7-4.6,13.2-2.3c9.6,2.3,15.9,4.8,18.3,6.1
			C246,183.7,249.6,189.7,251.9,195.9z"/>
		<path class="st2" d="M197.7,223.1c0,0,3.9-5.4,5.5-11.8c0,0-4.6-2.1-2.3-10.9c2.3-8.8,8.3-16.6,12.4-17.2
			c4.2-0.6,26.3,5.5,38.8,13.1l1.8,4.9c0,0,13.3-2.9,13.5-18.7c0,0-1.1,5.1-5.4,7.2c0,0,9.2-14.3-2.6-24.7c0,0,1.1,8-4.2,11.6
			c0,0-1.3-6.6-4.6-8.4c0,0-1.7,3.1-3.6,4.2c0,0-31.3-16.2-52.9,1.1c-21.6,17.3-15.2,54.1-9.7,70.3c5.4,16.2,5.3,25,5.3,25l-0.7-37
			c0,0-9.1-8.1-4.5-16.9c4.6-8.8,12.5-0.6,12.5,8.6"/>
		<path class="st3" d="M188.1,217.9c0,0,4.5,1.9,4,7.1l-2.3,1.7C189.7,226.7,192.1,221.9,188.1,217.9z"/>
		<path class="st2" d="M235.7,206l-2.2,1.4c0,0-5.5-8-18.5-5.6l-1.1-5.2C214,196.6,227.5,192.4,235.7,206z"/>
		<path class="st2" d="M244,208.1l0.4,2.7c0,0,2.4-2,6.4-0.9c3,0.8,3.8,5.9,3.8,5.9s2.4-1.1,2.4-1.3c0-0.2,0.1-6-5.4-7.7
			C247,205.4,244,208.1,244,208.1z"/>
		<path class="st4" d="M230.2,219.5l-1.7,1.1c0,0-5.1-6.6-12.3-2l-1.2-4.3C215,214.3,224.3,208.2,230.2,219.5z"/>
		<path class="st4" d="M243.7,224.2l0.5,1.7c0,0,1.3-1.9,3.5-1.3c2.2,0.6,3.1,3.3,3.1,3.3l2.4-1c0,0-0.7-4.5-4.9-5.2
			C245.1,221.1,243.7,224.2,243.7,224.2z"/>
		<path class="st3" d="M241.3,223.8c0,0,2.3,6,7,8.6c0,0,1.4,1.5,0.4,3.5c-1,2-6.7,5-8,6.1c0,0,4.2-1.9,6.1-2.5
			c1.9-0.7,6.9-3,4.2-7.8C251.1,231.8,245,229.9,241.3,223.8z"/>
		<path class="st5" d="M215.5,236.9c0,0-1.7,2.8-2.3,6.8c10.7,6.1,22.2,6.7,26.5,6.6c0.5-1.5,1-2.7,1.5-3.5
			C241.3,246.8,216.7,243.2,215.5,236.9z"/>
		<g>
			<path class="st6" d="M239.8,250.3c-2.3,0-6.6-0.1-11.7-1.2c3.1,2.8,7.1,7.2,7.6,11.4c0.5,0,0.9,0.1,1.4,0.1
				C237.1,260.6,238.3,254.6,239.8,250.3z"/>
			<path class="st7" d="M228.1,249.1c-4.6-0.9-9.7-2.6-14.8-5.4c-0.5,3.7,0,8.4,3.7,12.7c0,0,6.4,3.1,18.7,4.1
				C235.1,256.3,231.1,251.9,228.1,249.1z"/>
		</g>
	</g>
	<path class="st8" d="M355.6,98.9c0,0-4.8-0.7-8.1,3.6s-26.5,57.6-40.3,78c-10.4,15.5-52,63.3-58.5,70.5l-91.5,50.5
		c0,0-9.8,8.5-16.5,19.3s-30.3,39.8-50,59.3S19.5,421.5,0,428v7.8h89c0,0,37-24.8,50.3-42.5c0,0-6,26.8-19,42.5H260
		c0,0-3.5-81.3,20.8-143.3c0,0,71.6-109.4,92.6-128.4c0,0,5.2-4.5,9.8-7c4.7-2.5,17.7-9.8,14-32.8S370.4,96.8,355.6,98.9z"/>
	<path class="st9" d="M244.1,253.6l-63.6,87.8c0,0-17.7-14.5-21-41.1L244.1,253.6z"/>
	<path class="st5" d="M167.3,296c0,0-0.1,23.5,13.2,40.3l40.9-70.1L167.3,296z"/>
	<path class="st10" d="M194.3,295.7"/>
	<polygon class="st11" points="179.3,289.3 181.1,298.5 195.4,290.9 203.1,276.1 	"/>
	<path class="st10" d="M189,302.9"/>
	<path class="st11" d="M181.1,298.5l-6.6,28.1c0,0,3.8,7.3,5.6,9.3c0.1,0.1,0.3,0.3,0.3,0.3l16-27.5l-1.1-17.9L181.1,298.5z"/>
	<path class="st12" d="M366.5,136.4l22.8-41.2c0,0,17.8,2.3,21.8-12s-28.8-34.2-28.8-34.2s-15.8-3.3-22.3,14.3
		c0,0,2.5,10.7,6.4,15.6l-12.7,24.3C353.7,103.3,355.7,126,366.5,136.4z"/>
	<path class="st13" d="M382.6,39.1L314.5,0c0,0-14.5,6-14.3,28l80.9,41l80.1,61c0,0,18.5,0,21-23.8L382.6,39.1z"/>
	<g>
		<path class="st13" d="M281.2,93c0,0,3,3.3,8.6,3.9c5.6,0.6,8.1,10.2,8.1,10.2s-2.3,2.3-3.7,1.2c0,0-1.1-5-3.8-6.6
			c-4.6-2.6-7.4,0.3-12.2-7.4L281.2,93"/>
		<path class="st13" d="M297.5,105.7c0,0-0.4,1.3-3.6,1.6c0,0-0.9,1.4,0.2,4.4c0.9,2.4,2.5,2.7,2.5,2.7s2.7,0.4,4.6-2.1
			C301.1,112.3,301.5,107.7,297.5,105.7z"/>
		<path class="st13" d="M296.3,121.1c0,0-0.2,1.8-0.6,3.1c1.4,0.4,3.1,0.7,4.9,0.4c0.3-1.4,0.4-4-0.8-7.6c0,0,1.8,4.4,2,7.4
			c0.3-0.1,0.7-0.2,1-0.3c0.4-0.1,0.7-0.3,1.1-0.5c-0.3-1-1.1-2.8-2.3-5.1c0,0,1.9,2.6,3,4.7c1-0.7,1.7-1.5,2.2-2.2
			c-0.2-0.7-0.6-1.5-1.3-2.2c0,0,0.9,0.2,1.7,1.2c0.5-1.5,0.2-2.8,0.2-2.8s-3.4-1.1-6.3-4.8c-2.8-3.7-4.6,1.1-4.6,1.1
			s-1.1,6.7-4.1,9.3c0,0,0.9,0.6,2.2,1.1C295.2,123.2,296,122.1,296.3,121.1z"/>
		<g>
			<polygon class="st14" points="214.8,141.1 118.7,118.4 178.3,53 298.8,82.5 			"/>
			<g>
				<path class="st15" d="M166.5,132.4l-2.2-23.6c0,0,4.8-15.5,28.3-21.9c23.5-6.3,43.8,2.8,48.8,8.1l4.3,29.5L166.5,132.4z"/>
				<path class="st16" d="M210,146.5c10.4-1.5,36.8-7.7,35.7-21.9c-1.1-14.2-37.1-20.5-54.1-5.2c0,0-7.5-1.9-14.2-0.5
					c-6.2,1.3-13.2,6.4-10.3,16.1C170.8,147.6,193.4,149,210,146.5z"/>
			</g>
		</g>
	</g>
	<path class="st12" d="M375.3,51.1c0,0,3-11.1,8.1-16.5c0,0,10-3,15.6,5.3c0,0-5.1,11.8-11,18S375.3,51.1,375.3,51.1z"/>
	<path class="st12" d="M398.4,39.1c0,0,8.3-1,13.1,8.9c0,0-4,16.4-16.8,22.4c0,0-4,0.1-8.8-3.6s-3.4-6-3.4-6s1.5-6.4,2.4-7.3
		s7.8-7,8.1-7.5S398.4,39.1,398.4,39.1z"/>
	<path class="st12" d="M410.6,48.6c0,0,7.4,1,10.4,9.3c0,0-2.6,15.3-19.3,20c0,0-7.1-1.3-8.9-8.6s2.6-14.2,3.1-14.5
		C396.5,54.4,410.6,48.6,410.6,48.6z"/>
	<path class="st12" d="M419.8,59.6c0,0,5.3,1.5,6.5,7.8c0,0-3.3,13-17.8,16.9c0,0-5.9-2.2-7.7-7.8c-1.8-5.6,2.7-7.4,3.3-7.7
		c0.6-0.3,8.8-4.8,9.3-5.2C413.8,63.4,419.8,59.6,419.8,59.6z"/>
	<path class="st12" d="M367.5,52.7c0,0,6.5-5.6,14.2-3.7c7.7,1.9,13,15.3,13,15.3s-3.6,7.5-12.9,7.6c0,0-7.5-5.4-9.8-15.4
		L367.5,52.7z"/>
	<path class="st12" d="M380.8,68.3c0,0-11.2-2-14.8-4.1c-3.6-2.1-4.9-3.2-4.9-3.2s2.4-5.5,7.6-9s9.8,7,10,7.2S380.8,68.3,380.8,68.3
		z"/>
	<path class="st17" d="M353.8,101.3c0,0,7.2,39.4,24.8,40.2c16.5,0.7,8.5-23.2,8.5-23.2s9.7,24.3-4.2,28.2
		C364.4,151.7,351.8,116.6,353.8,101.3z"/>
	<path class="st17" d="M242.7,95.8l3.2,21.7l48.5-33.8C294.4,83.7,265.1,100.5,242.7,95.8z"/>
	<path class="st17" d="M163.3,110.2l2.2,18l-36.8-8.5C128.7,119.7,148.4,120.3,163.3,110.2z"/>
	<path class="st18" d="M240.5,96c0.1,0.1,3,21.2,3,21.2s-3.6-4.3-10.4-6.2l-1.7-20.3C231.3,90.7,237.2,92.6,240.5,96z"/>
	<polygon class="st18" points="231.1,108.6 229.4,88 226.9,86.9 228.6,108.2 	"/>
	<path class="st17" d="M166.4,126.7l-1.7-17.7c0,0,2.8-6.7,7.5-10.4l2.9,20.5C175.2,119,169.2,120.3,166.4,126.7z"/>
	<path class="st17" d="M198.5,146.6c0,0-13.2-0.6-12.9-8.7c0.4-13.3,45.9-29.5,59.4-11.7c0,0-0.1-11-19.2-14
		c-12.1-1.9-27.8,2.1-33.9,8.8c0,0-15.9-4.6-21.6,2.7C161.4,135.1,173.5,148.2,198.5,146.6z"/>
	<path class="st19" d="M380.1,114.3l-11.5,20.6c0,0,7.2,7.7,13,5.2C387.3,137.5,388.3,120.7,380.1,114.3z"/>
	<path class="st11" d="M180.2,289.5l1.5,8l7-4c0,0-4.3-1.6-0.7-8.3L180.2,289.5z"/>
	<path class="st20" d="M189,295.7l-7.3,3.6l-6.4,26.7l5.3,8.3c0,0,4.2-7.3,5.4-9.1C185.9,325.2,180.4,313.5,189,295.7z"/>
	<path class="st21" d="M140.3,389.1c0,0,7-26,7.3-37.7c0,0-36,66-99.3,82.7H87C87,434.1,124,411.1,140.3,389.1z"/>
	<path class="st21" d="M384.4,154.5c0,0-18.4,4.8-28.1-4.8c0,0,2.8,9,6.8,11s-28.3,43.1-37,54.2c-8.8,11.1-38.3,58.3-59,76.5
		s-22.9,22.2-22.9,22.2s11.2-2.1,12.4,6.7s-7,88.4-5,113.8h6.3c0,0-5-59.3,12.8-123.1c0,0,3.3-12.9,7-19.1l53.8-78.2
		C348,191.3,370.5,158,384.4,154.5z"/>
	<path class="st22" d="M392.5,65.6c0,0-4.3,4.5-10.7,4.8c0,0-7.3-5.4-7.9-14.2C373.8,56.2,382.6,68.8,392.5,65.6z"/>
	<path class="st22" d="M380.8,39.9c0,0-2.6,5.2-3.7,7.9c0,0,3.3-0.4,6.8,0.8c3.4,1.1,6.5,4.6,6.5,4.6s3.9-5.2,4.8-7.2
		C395.1,46.1,386.3,48.5,380.8,39.9z"/>
	<path class="st22" d="M384.4,72.9l22.4,16.7c0,0-4.9,3.8-11.2,3.9C395.5,93.5,396.9,83.9,384.4,72.9z"/>
	<path class="st20" d="M405.1,89.4l-11.8-9.2c0,0,7.6,8,7.1,11.6C400.4,91.8,403.6,91.2,405.1,89.4z"/>
	<path class="st22" d="M393.4,51.7c0,0-1,2.4-2.4,3.8c0,0,4,6.4,4.6,8.2c0.6,1.8-3.8,5-4.3,5.4c0,0,2.7,0.6,3.5,0.8
		c0,0,6-2.9,10.4-9.6C405.1,60.2,395.8,61,393.4,51.7z"/>
	<path class="st22" d="M403.6,64.7c0,0-4.7,4.7-8.5,6h-1.3c0,0,2.4,5.5,7.8,6.5c0,0,3.2-0.6,6.1-2.5
		C407.8,74.7,401.4,73.5,403.6,64.7z"/>
	<path class="st22" d="M411.9,73.1c0,0-5,4.1-9.8,5c0,0,1.6,4.1,6.5,5.6c0,0,4.5-1.4,6.5-2.8C415,80.9,410.7,78.6,411.9,73.1z"/>
	<polygon class="st22" points="367,133.2 388.5,94.9 385.2,92.3 385.7,94.6 364.7,129.4 	"/>
	<path class="st22" d="M361,63.6c0,0,2.5,10.7,6.1,14.8l1-1.2C368.2,77.3,361.7,66.3,361,63.6z"/>
	<path class="st23" d="M394.1,64c0,0-3.9-11.2-12.3-14.3c0,0-4.2-0.8-8,0.6c0,0,5.7,0.4,8.4,1.8c6.3,3.4,10.7,12.9,10.7,12.9"/>
	<path class="st17" d="M353.6,100.3c0,0-2.6,1.2-3.1,5.2c-0.5,4.1,1.2,25.4,8.8,33.8c0,0-11.9-9.2-11.7-30.8l-20.7,41.3l20.8-45.5
		C347.7,104.2,349.2,99.9,353.6,100.3z"/>
	<path class="st20" d="M387.1,71l74.5,56.6c0,0,8.5-0.5,14.5-7.4c0,0-24.5-10.1-61.2-37.5c0,0-5.9,1.9-7.3,1.7c0,0-5.1-2.1-7-7
		c0,0-5.7-1-8.3-7.4l-2.3-1.2C390.2,68.8,388.3,71,387.1,71z"/>
	<path class="st20" d="M368.2,51.2c0,0-4.3,2.4-6.4,6l-59.5-30.1c0,0-1.5-7.6,3.3-15.3C305.5,11.9,355.3,44.2,368.2,51.2z"/>
	<path class="st20" d="M281.5,95.2l-1.6,1c0,0,2.1,2.8,5,3.3c2.9,0.5,7.4,0.5,9.3,7.3c0,0,1.2-0.2,1.7-0.7c0,0-1.8-5.8-5-6.9
		C287.6,98,283,98,281.5,95.2z"/>
	<path class="st13" d="M294.2,107.7c0,0-1.1,3.3,2.1,6.4c0,0,1.2,0.2,2.3-0.4c0,0-2.6-2.4-2.3-6.6
		C296.4,107.3,295,107.7,294.2,107.7z"/>
	<path class="st20" d="M299,114.3c0,0-0.9,0.6-2.5,0.5c0,0-0.7,5.1-3.8,7.8c0,0,1.1,0.7,1.7,0.9c0,0,1.6-1.8,1.9-3.5
		c0,0,0.4,2-0.2,3.8c0,0,1.7,0.7,2.4,0.5c0,0,1-4.6-0.2-8.7c0,0,1.4,4.6,1.3,7.5c0,0,1-1.7-0.7-7.6l0.8,2l-0.6-3c0,0,2.6,5,3,9.2
		c0,0,1.2-0.3,1.4-0.5C303.4,123.4,301.7,118.6,299,114.3z"/>
	<path class="st24" d="M254.3,200.5c0,0,9.8-3.4,11.5-11.5c0,0-5.1,4-11.8,4.7c0,0,13.3-4.2,9.9-19.7c0,0-3.5,10.2-9.9,12.8
		c0,0,2.4-10-1.7-15.4c0,0-1.8,10.3-13.3,13.6c0,0-5.4,0.5-14.2-1.5c-8.8-2-9.8-2.3-12.5-1.3c-2.7,1-3.5,2.7-3.5,2.7s2.3-2.1,5.8-2
		c3.6,0.1,25.5,5.2,37.9,13.1C252.6,196,254.3,199.5,254.3,200.5z"/>
	<path class="st24" d="M180.8,206.4c0,0-2.3,14.1,2.4,29.5s5.9,21.8,5.9,21.8l-1-25.1c0,0-5.4-4.4-5.4-12.4
		c0.1-9.6,8.2-11.6,11.1-7.9c2.9,3.6,4.2,8.4,4.2,8.4s3.9-6.3,3.8-8.5c0,0-3.1-4.5-2.3-10.4C199.5,201.7,189.5,207.4,180.8,206.4z"
		/>
	<path class="st22" d="M191.2,238.1c0,0,8,24.6,18.8,33.3l-5.5,2.9C204.5,274.3,192.7,256.1,191.2,238.1z"/>
	<path class="st22" d="M247.3,237.3c0,0-5.8,3.8-6.8,4.9c0,0-2.3-0.2-3.6-2.1l8.4-3.5L247.3,237.3z"/>
</g>
</svg>
