<?xml version="1.0" encoding="utf-8"?>
<!-- Generator: Adobe Illustrator 22.1.0, SVG Export Plug-In . SVG Version: 6.00 Build 0)  -->
<svg version="1.1" id="Layer_1" xmlns="http://www.w3.org/2000/svg" xmlns:xlink="http://www.w3.org/1999/xlink" x="0px" y="0px"
	 viewBox="0 0 302.5 280.6" style="enable-background:new 0 0 302.5 280.6;" xml:space="preserve">
<style type="text/css">
	.st0{fill:#2C324C;}
	.st1{filter:url(#Adobe_OpacityMaskFilter);}
	.st2{fill:#FFFFFF;}
	.st3{opacity:0.9;mask:url(#SVGID_1_);}
	.st4{fill:#5884A4;}
	.st5{fill:#C66A0E;}
	.st6{fill:#FFCC29;}
	.st7{fill:#E68A21;}
	.st8{fill:#4B677F;}
	.st9{opacity:0.2;fill:#4B677F;}
	.st10{fill:#587187;}
	.st11{fill:#F25130;}
	.st12{fill:#FF6950;}
	.st13{fill:#DD4026;}
	.st14{fill:#9B3937;}
	.st15{fill:#EFE9E8;}
	.st16{opacity:0.3;fill:#9BB5CC;}
	.st17{fill:#F25130;stroke:#F25130;stroke-width:0.4188;stroke-miterlimit:10;}
	.st18{fill:#FF6942;stroke:#FF6942;stroke-width:0.4188;stroke-miterlimit:10;}
	.st19{opacity:0.2;fill:#D0C9C1;}
	.st20{fill:#E5DBD9;}
	.st21{opacity:0.2;fill:#E5DBD9;}
	.st22{opacity:0.2;fill:#9B3937;}
	.st23{fill:#7C8C93;}
	.st24{opacity:0.2;}
	.st25{fill:#A1AFB2;}
	.st26{opacity:0.4;}
	.st27{fill:#AACCE0;}
	.st28{opacity:0.1;}
	.st29{display:none;}
	.st30{display:inline;fill:#EDB162;}
	.st31{display:inline;}
	.st32{fill:#F8C478;}
	.st33{fill:#9B5A50;}
	.st34{fill:#C47F2C;}
	.st35{fill:#58595B;}
	.st36{fill:#7A012A;}
	.st37{fill:#AA183B;}
	.st38{display:inline;fill:#2C324C;}
	.st39{display:inline;fill:#5884A4;}
	.st40{display:inline;fill:#FFFFFF;}
	.st41{display:inline;fill:none;stroke:#EE2A7B;stroke-miterlimit:10;}
	.st42{display:inline;fill:#E68B22;}
	.st43{display:inline;fill:#F9C478;}
	.st44{display:inline;fill:#E68A21;}
	.st45{fill:#30344B;}
	.st46{fill:#5684A5;}
	.st47{fill:#3E5E79;}
	.st48{display:inline;fill:#3B4466;}
	.st49{display:inline;fill:#AACCE0;}
	.st50{display:inline;fill:#231F20;}
	.st51{display:inline;fill:#C66A0E;}
	.st52{display:inline;fill:#21263D;}
	.st53{display:inline;fill:#E89E46;}
	.st54{display:inline;opacity:0.5;fill:#FFFFFF;enable-background:new    ;}
	.st55{display:inline;fill:#683833;}
</style>
<g>
	<g>
		<path class="st0" d="M246.4,58.1C206.9-1.6,131.1-17.4,73.7,20.6c-4,2.7-8,5.8-12.5,9.5C8.6,75.3-2.7,157,36.8,216.7
			c2.4,3.6,4.9,7.1,7.6,10.4l-1.1-0.6c41.7,52.7,114.1,64.4,168.6,26.1c1.1-0.8,2.2-1.6,3.3-2.4c0.2-0.1,0.3-0.2,0.5-0.3
			c0.1-0.1,0.1-0.1,0.2-0.2c0.1-0.1,0.1-0.1,0.2-0.2c0.2-0.1,0.3-0.2,0.5-0.4c1.1-0.8,2.2-1.7,3.2-2.6
			c51.9-42.3,65.7-119.2,33-178.7l0.2,1.4C251,65.4,248.8,61.7,246.4,58.1z"/>
		<defs>
			<filter id="Adobe_OpacityMaskFilter" filterUnits="userSpaceOnUse" x="0" y="8.3" width="257.4" height="272.4">
				<feColorMatrix  type="matrix" values="1 0 0 0 0  0 1 0 0 0  0 0 1 0 0  0 0 0 1 0"/>
			</filter>
		</defs>
		<mask maskUnits="userSpaceOnUse" x="0" y="8.3" width="257.4" height="272.4" id="SVGID_1_">
			<g class="st1">
				<g>
					<path class="st2" d="M246.5,57.6C207-2.1,131.2-17.9,73.8,20.1c-4,2.7-8,5.8-12.5,9.5C8.7,74.8-2.6,156.5,36.9,216.2
						c2.4,3.6,4.9,7.1,7.6,10.4l-1.1-0.6C85,278.7,157.5,290.4,212,252.1c1.1-0.8,2.2-1.6,3.3-2.4c0.2-0.1,0.3-0.2,0.5-0.3
						c0.1-0.1,0.1-0.1,0.2-0.2c0.1-0.1,0.1-0.1,0.2-0.2c0.2-0.1,0.3-0.2,0.5-0.4c1.1-0.8,2.2-1.7,3.2-2.6
						c51.9-42.3,65.7-119.2,33-178.7l0.2,1.4C251.1,64.9,248.9,61.2,246.5,57.6z"/>
				</g>
				<path class="st2" d="M173.4,3.8c-32.9-9-68.9-4.1-99.6,16.3c-4,2.7-8,5.8-12.5,9.5C8.7,74.8-2.6,156.5,36.9,216.2
					c2.4,3.6,4.9,7.1,7.6,10.4l-1.1-0.6c22.5,28.5,54,44.9,86.8,48.1L173.4,3.8z"/>
			</g>
		</mask>
		<g class="st3">
			<path class="st4" d="M0,94.2c13.5-2.6,25-4.6,25.4-4.7c0.6-0.2,0.7-0.2,0.1-0.9c-0.2,0.1-2.4-0.9-4.7-1.8
				c-2.3-0.9-4.5-1.9-4.9-2.6c-0.3,0.1-0.6-1.4-0.8-5.4c-0.3-3.2-0.3-5.6-0.1-5.7c0.2-0.1,10-8.9,21.6-19.9l21.5-19l7.3-1.5
				c10.4-2.5,12.1-3,12.2-2.2c-0.1,0-2.2,6.4-5,13c-2.6,7.4-4.8,13.8-5,13.8c-0.1,0,0.2,0.8,0.5,0.7c0.5,0.7,6.7,3.6,14.2,7.8
				c7.3,3.4,13.5,7.2,13.5,7.2s-0.9,2.7-2,6.4l-2.4,4.9l-6.6,1.3c-3.7,0.4-7.2-0.2-7.3-0.2c-0.2,0.1-0.6-2.3-0.8-4.6
				c-0.2-2.4-0.6-4.7-0.7-4.7c-0.3-0.7-0.9-0.5-2.4-0.1c-1.1,0.3-2.1,0.7-2,1.4c-0.1,0-0.2,1.7-0.3,3.3L71,84.1l1.5,2.8
				c0.8,1.4,1.4,2.8,1.3,2.9L69.7,91c-6.7,1.3-6.1,0.3-7.5,5.6c-0.6,2.6-1.3,4.5-1.2,5.3c-0.1,0,0.9,1.3,2.2,1.7
				c1.8,1.1,3,1.5,5,0.9c1.7,0.3,3.5,0.5,4.1,0.4c0.9,0.5,2.3,0.9,5.2,3.3c2.3,1.7,4.5,3.5,4.7,3.4c0.4-0.1,0.6-7.6,0.2-9.1
				c0,0-0.5-0.7-1-1.3c-0.8-0.6-1-1.3-2.1-5.1c-1-3.8-1.2-4.5-0.7-4.7c1.5-0.5,16.4-1.9,16.9-1.3c0.2-0.1,4.1,2.8,8.9,7
				c7.3,5.9,8.3,6.4,8.1,7.2c-0.2,0.1-3.4,4.3-7.2,8.8c-3.6,5.2-6.9,8.7-6.9,8.7c-0.1,0,0.2,1.6,0.7,3.9l0.7,3.1l-1.6,0.5
				c-1.5,0.5-1.6,0.5-2.6,2.5c-0.8,1.9-0.8,2.7-0.5,3.4c1.7,3.6,1.8,2.7-0.9,8.5c-1.7,3-2.5,4.9-2.5,4.9c0.2,0.7,1,2.1,1.8,3.5
				c2.3,4.2,2.1,3.4,0,4.1c-1.7,0.6-1.8,0.6-3.6-1.3c-2.9-2.3-2.2-2.6-8.2-0.7l-5.6,1.8c-0.3,0.9-1.8,9.6-1.6,10.3
				c0.2,0.7,5.6,3.9,6.4,3.7c0.4-0.1,1.5-1.3,2.5-2.4l1.8-2.2l1.5,0.3l1.5,0.4l0.4,2.3c0.3,1.5,0.6,3.1,0.8,3.8l0.4,1.5l1.6-0.5
				c0.9-0.3,1.7-0.5,2.1,0.2c0.2-0.1,0.9,1.4,1.5,2.8c1.8,4.3,1.2,3.7,5.5,2.4l3.7-1.2l3.1-2.6l2.9-3.4l2.9,0.7
				c2.5,0,3.1-0.2,7.6-0.8l5-1.6c0.4,0.7,1.1,2.1,1.6,3.6c0.8,2.2,1.5,3.6,1.8,3.5l3.9-1.2c1.9-0.6,3.7-0.3,3.8-0.4
				c0.1,0,0.8,1.4,1.6,3.6c0.8,2.2,1.6,3.6,1.8,3.5c0.5,0.7,1.4,0.4,3-0.1l2.4-0.7l8.3,3.1c4.6,1.8,8.5,3.9,8.5,3.9
				s-0.5,1.8-1.2,3.6c-0.7,1.8-1.2,3.6-1.2,3.6c0,0,0.6,3.1,1.1,6.2l0.7,4.7l-0.9,2.8c-1.4,2.9-18.7,45.1-19,46.9
				c-0.3,0.9-0.3,0.9,0.5,2.3c0.5,0.7,1.1,2.1,1.5,3.6l0.6,2.3l-1.2,3.6c-0.9,1.1-1.4,2.9-1.4,2.9s1.1,1.3,2.1,1.8
				c1.3,1.2,2.4,2.5,2.4,2.5c0.2,0.7-1.1,5.3-1.5,5.4c-0.1,0-2.9-2.4-5.9-4.7l0,0l-5.5-4l-2.5-9l-2.5-9l-2.1-17.3
				c-1.4-10.2-2.3-18.1-2.5-18.8c-0.2-0.8-1-0.5-3.9-1.2l-3.9-1.2l-6.1-8.7c-3.5-5.4-6.3-9.4-6.6-10.2c-0.2-0.7,0-2.4,0.5-3.4
				c0.5-3.4,0.6-3.4-0.3-6.5l-0.8-3l-3.2,1l-3.8,1.2c-0.5-0.7-1.8-1.9-2.9-3.2l-2.4-3.3l-2.1,0.7l-1.9,1.4l-8.7-3l-8.5-2.2l-3.3-3
				c-1.7-1.1-3.3-2.2-3.6-2.1c-0.5-0.7-1.8-0.2-3.2,0.2l-2.6,0.8l-11.1-9.6l-11.1-9.6l-1.5-6.9l-1.3-6.1l-3.4-3
				c-1.9-1.8-3.9-3.7-4.1-3.6c-0.6-0.6-1.1-0.5-1.9,0.6l-1.7,0.5c-0.2,0.1-1.2-1.3-2.2-2.6c-1.7-1.9-1.9-2.7-0.5-3.1l0.8-0.2
				c-0.2-0.7-8.6-6.3-9.7-6.8 M218.3,89.9c1.5-2.9,1.4-2.9,8.5-4.3c2.7,0,4.8-0.7,4.9-0.7c0.1,0-0.9-1.3-2.4-3.3
				c-2.5-2.5-3.4-3-5.3-2.4c-0.8,0.3-0.9,0.3-0.5,1.8c0.4,1.5,0.1,1.6-1.5,2.1c-0.8,0.2-1.2,0.4-2.8-0.8l-2-1.8L216,85
				c-0.8,1.9-1.4,3.7-1.2,4.5c0.2,0.8,1.5,2.8,1.8,2.7C216.7,92.1,217.5,91,218.3,89.9L218.3,89.9z M257.3,76.8
				c0.2-0.1-0.2-1.6-0.5-2.3l-0.6-1.4l-1.2,0.4c-1.4,0.4-1.6,0.5-0.4,3.4c0.6,1.4,0.7,1.4,1.6,1.1C256.8,77.8,257.2,76.9,257.3,76.8
				z M54.8,252.7c-1.3-0.4-2.3-0.9-2.5-1.6c0,0,0.8-1.9,1.5-2.9l0.7-1l2.1,0.2c1.5,1.2,2.6,1.6,2.7,1.6c0.4,0.7-0.9,4.4-1.6,4.6
				C57.4,253.5,56.1,253.1,54.8,252.7z M49.7,246.1c0,0.8-2.2,3.2-2.7,3.3 M3.9,187.8c0.6-0.2,7.9,4.9,7.9,4.9
				c0.2,0.7-0.4,4.2-0.8,4.3c-0.1,0-1.9-0.2-4.1-1.1 M97.3,164.9c-2.1-0.1-4-0.4-4.2-0.3c-0.3,0.1-0.7-3.8-0.4-4
				c0.1-0.8,8-0.1,8.4-0.2c0.5,0.6,0.5,3.1,0,3.3C101.2,164.5,99.8,164.9,97.3,164.9L97.3,164.9z M171.8,85.8c-0.1,0-0.2-1.6,0-2.4
				c0.4-2.6,0.2-3.3-1.2-3.7c-0.7-0.6-2.1-1.8-3-2.3l-1.7-1.1l1-2.8c0.7-1.9,1.1-2.8,1.6-2.1c0.2-0.1,1.1,1.3,2,2.6
				c1.4,2,1.7,1.9,4.4,3.5l2.9,1.5l0.4,2.3c0.3,1.5,0.2,2.4,0.1,2.4c0,0.8-1.5,1.3-3.2,1.8C172.9,86.3,172.2,86.5,171.8,85.8
				L171.8,85.8z M116.2,82.9c-0.9,0.3-1.5-0.3-6.5-5.3c-3.1-3.1-5.8-6.3-5.9-6.3c-0.1,0-2.1-4.2-4.4-9.2c-2.1-4.2-4.1-8.5-4.2-8.5
				c-0.5-0.6-7.6-4.1-8.1-4c-0.2,0.1-1.5,1.3-2.7,2.5c-1.3,1.2-2.7,1.7-2.9,1.7c-0.5,0.1-4.8-3.4-5-4.2c-0.2-0.8,6-19.9,6.6-20.1
				c0.3-0.9,43.3-21,44.2-21.3c0.9-0.3,14.1,6.2,14.3,6.9c0.2,0.7-0.6,2.6-1.6,4.6c-1,2-2.1,3.1-2,3.9c-0.1,0,0.6,3.9,1.4,7.7
				c0.8,3.8,1.4,7.7,1.3,7.8c0,0.8-1.1,5.2-2.3,10.5c-1.8,9.6-2.3,9.7-3.1,10.8c-0.6,0.2-3.6,2.8-6.6,5.4l-5.7,4.2l-0.4,5.8
				l-0.6,5.1l-2.5,0.8L116.2,82.9L116.2,82.9z M145.7,67.1c-2.3-2.5-4-4.5-3.8-4.5c0.4-0.1,8.8-6,9.2-6.2c1.1,0.5,5.4,3.2,5.6,3.9
				c0,0-5.9,9.2-6.7,10.3C149.7,70.7,148.4,69.5,145.7,67.1z"/>
			<g>
				<path class="st0" d="M179.9,68.5l1.8-0.6l1.4-5.9l-0.5-3.6l1.3-8.4c0,0-0.1-6.9,1.1-7.3c1.2-0.4,4.4-5.1,4.4-5.1l8.5-3.2l6.4-1
					l7.3-1.2l5.2-0.6l0.7-0.3c0.2-1,0.2-1.7,0-1.6c-0.1,0-4.5,0.6-10,0.7c-5.5,0.1-10.4,0-10.8,0.1c-0.4,0.1-3.2,1.8-6.1,4.4
					c-4.2,2.1-5.7,3.5-6,4.4c-0.4,0.9-6.2,19.9-6.3,21.6C178.3,61.7,179.5,67.9,179.9,68.5z"/>
				<path class="st4" d="M135.4,60.5c0.8-1.1,1.3-1.2,3.1-10.8c1.2-5.3,2.3-9.7,2.3-10.5c0.2,0-0.5-3.9-1.3-7.8
					c-0.8-3.8-1.5-7.7-1.4-7.7c-0.1-0.8,1-1.9,2-3.9c1-2,1.8-3.8,1.6-4.6c-0.2-0.7-13.4-7.2-14.3-6.9c-0.9,0.3-44,20.4-44.2,21.3
					c-0.6,0.2-6.8,19.3-6.6,20.1c0.2,0.8,4.5,4.3,5,4.2c0.2-0.1,1.6-0.5,2.9-1.7c1.3-1.2,2.5-2.4,2.7-2.5c0.4-0.1,7.5,3.4,8.1,4
					c0.1,0,2.1,4.2,4.2,8.5c2.3,5,4.3,9.3,4.4,9.2c0.1,0,2.9,3.2,5.9,6.3c5,4.9,5.6,5.6,6.5,5.3l3.5-1.1l2.5-0.8l0.6-5.1l0.4-5.8
					l5.7-4.2C131.8,63.3,134.8,60.7,135.4,60.5z"/>
			</g>
			<g>
				<path class="st0" d="M255,73.5l1.2-0.4l0.6,1.4c0.3,0.7,0.7,2.2,0.5,2.3c-0.2,0-0.6,1-1.1,1.2c-1,0.3-1,0.3-1.6-1.1
					C253.4,74,253.6,73.9,255,73.5z"/>
				<path class="st0" d="M178.3,114c0.1,0,0.9-1.6,2-3.8l-2.7,3.2C178,114,178.2,114.1,178.3,114z"/>
				<path class="st0" d="M216.6,104.4c0.4-0.1,0.4-0.1-0.6-3.1l-2,1.9C215.2,103.7,216.4,104.5,216.6,104.4z"/>
			</g>
		</g>
	</g>
</g>
<g>
	<g>
		<g>
			<path class="st5" d="M184.3,115c-5.7,11.6-8.2,16.2-20.4,20.9c-11.3,3.7-22.8,5.6-33.9,9.8c-1.6,0.6-1.9,0.4-0.6-0.9
				c10.8-11.9,18.6-29.6,31.4-37.9c4.8-3.1,11.4-2,17.1-2.4c0.8-0.2,0.9,0.2,0.9,0.7c-0.4,0.8-1.2,1-1.8,1.1c-5.1,1-10.2,2.8-12.8,8
				c-1.3,2.4-2.7,5.3-2.4,7.5c0.1,0.7,0.3,1.1,0.8,1.5c5.2,2.7,12.1,1,16-3.4c1.3-1.4,2.4-3,3.6-4.7c0.4-0.5,0.6-1.3,1.7-1.5
				C184.5,113.9,184.8,114.1,184.3,115z"/>
			<path class="st6" d="M182.4,111.5c0.4,0.8,0.8,1.5,1.2,2.3c-3.2,4.8-6.7,9.9-12.6,10.8c-3.2,0.6-6.7,0.3-8.8-1
				c-0.6-0.3-0.8-0.8-0.8-1.4c0.2-6.1,4-12,9.2-14.4c1.6-0.7,3.5-1.1,5.6-1.6c0.8-0.2,1.6-0.4,2.5-0.7
				C179.9,107.6,181.1,109.6,182.4,111.5z"/>
		</g>
		<path class="st7" d="M191.2,121.2l-15.6-25.8l-4.1,2.8c-5.3,3.7-6.1,12.4-1.8,19.6c4.3,7.1,12.1,9.9,17.4,6.3L191.2,121.2z"/>
	</g>
	<path class="st8" d="M194.1,121.8l-17.7-29.3l-3.9,2.7c-5.1,3.5-5.3,13-0.4,21c4.9,8.1,13,11.8,18.1,8.2L194.1,121.8z"/>
	<path class="st9" d="M171.8,116c0.1,0.1,0.1,0.2,0.2,0.3c4.9,8.1,13,11.8,18.1,8.2l3.9-2.7l-9.1-15L171.8,116z"/>
	<path class="st10" d="M197.8,123.5c-5.8,4-15.3-0.6-21.2-10.3c-5.9-9.7-5.9-20.8-0.1-24.9l4.5-3.1l20.6,34L197.8,123.5z"/>
	<path class="st8" d="M191.4,102.4l-15,10.4c0.1,0.1,0.1,0.2,0.2,0.3c5.9,9.7,15.4,14.3,21.2,10.3l3.7-4.3L191.4,102.4z"/>
	<g>
		<g>
			<g>
				<path class="st11" d="M183.9,90.8c-5.8-3.8-19.1-13.6-19.8-18.6c-0.1-0.6,0-1,0.4-1.4c7.2-8.4,18.2-13.7,28.8-13.7
					c6.7,0,12.6,2.2,16.7,6.2L183.9,90.8z"/>
				<path class="st12" d="M193.2,58c6.1,0,11.5,1.9,15.4,5.3l-24.8,26.2c-7.9-5.3-18.3-13.7-18.8-17.6c0-0.4,0-0.5,0.1-0.6
					C172.2,63.1,182.9,58,193.2,58L193.2,58L193.2,58z M193.2,56.1c-10.3,0-21.8,5-29.4,14C159,75.7,184,92,184,92l27.2-28.7
					C206.7,58.4,200.2,56.1,193.2,56.1L193.2,56.1z"/>
			</g>
			<path class="st13" d="M208.4,143.8c18.1-6.4,31-27.6,25.2-43.5L198,115.1C198,115.1,201.7,146.2,208.4,143.8z"/>
			<path class="st14" d="M233.6,100.3L198,115.1c0,0,0.9,7.7,2.6,15.1c6.8-1.4,17.8-4.4,32.4-11
				C235.4,112.8,235.8,106.2,233.6,100.3z"/>
			<path class="st2" d="M267.4,92.3c30.2-20.9,39-53.3,33.2-65.1l0,0c-0.1-0.1-0.1-0.2-0.2-0.3c-0.1-0.1-0.1-0.2-0.2-0.3l0,0
				c-7.7-10.5-39-15.1-69.2,5.8c-40.6,28.1-52,53.5-52.4,54.4c0,0,0,0,0,0c-5.8,4-5.7,15.2,0.1,24.9c5.9,9.7,15.4,14.3,21.2,10.3
				c0,0,0,0,0,0C201.3,121.9,227.1,120.2,267.4,92.3z"/>
			<path class="st15" d="M279.8,41.7c5,8.3,10.2,15.6,14.7,21c8-14.6,9.6-28.6,6.2-35.5l0,0c-0.1-0.1-0.1-0.2-0.2-0.3
				c-0.1-0.1-0.1-0.2-0.2-0.3l0,0c-4.5-6.1-17-10.3-32.7-8.5C270.3,24.8,274.6,33.1,279.8,41.7z"/>
			<path class="st16" d="M212.8,88.1c-5.8-9.6-12.1-22.4-10.1-32.5c-17.9,17.6-23.8,30.6-24.1,31.2c0,0,0,0,0,0
				c-5.8,4-5.7,15.2,0.1,24.9c5.9,9.7,15.4,14.3,21.2,10.3c0,0,0,0,0,0c0.9,0,14.1-0.9,36-11.2C224.7,108.1,218.5,97.4,212.8,88.1z"
				/>
		</g>
		<path class="st17" d="M271,40.8c-0.1-0.1-0.1-0.2-0.2-0.4c-0.3,0.2-0.7,0.4-1,0.6c0.1,0.1,0.1,0.2,0.2,0.4c0.3,0.6,0.9,0.1,1-0.2
			C271.1,41.1,271,40.9,271,40.8L271,40.8z M273.7,45.6c-0.5-0.7-2.4,0.6-2.6,1.3c-0.1,0.5,0.4,1.1,1.9,0
			C273.9,46.2,273.7,45.7,273.7,45.6L273.7,45.6z M275.4,48.6c-0.5-0.7-2.3,0.6-2.6,1.4c-0.1,0.4,0.3,1.1,1.7,0.1
			C275.7,49.2,275.5,48.7,275.4,48.6L275.4,48.6z M269.9,44c-0.2-0.5,0.3-0.7,0.6-0.7c0.1,0,0.2,0.2,0.2,0.2c0.2,0.3,0.3,0.6,0.5,1
			c0.2,0.5-0.3,0.8-0.5,0.7c-0.1,0-0.2-0.2-0.2-0.2C270.2,44.6,270.1,44.3,269.9,44L269.9,44z M267.3,42.1c-0.1-0.3,0-0.5,0.5-0.8
			c1-0.6,1.9-1.1,2.9-1.6c0.5-0.3,0.7-0.2,0.9,0.1c0.1,0.2,0.2,0.4,0.3,0.6c0.7,1.4-0.8,2.4-1.6,2.2c-0.3-0.1-0.5-0.3-0.6-0.4
			c-0.7,1.4-0.7,1.4-0.9,1.6c-0.2,0.2-0.6,0.3-0.8,0c0-0.1-0.1-0.2,0.1-0.6l1-1.7c-0.3,0.2-0.7,0.4-1,0.6
			C267.9,42.2,267.4,42.4,267.3,42.1L267.3,42.1z M276.5,50.5c-0.4-0.7,0.3-0.9,0.4-0.9c0.2,0,0.3,0.2,0.4,0.3
			c0.1,0.1,0.2,0.2,0.2,0.4c0.2,0.3,0.2,0.5-0.3,0.9c-0.9,0.7-1.8,1.4-2.7,2c-0.9,0.7-1-0.1-0.9-0.2c0.1-0.2,0.3-0.4,0.4-0.5
			C274.9,51.8,275.8,51.2,276.5,50.5C276.6,50.6,276.6,50.6,276.5,50.5L276.5,50.5z M270.2,47.9c-0.9-1.7,2.1-3.6,3.4-3.4
			c1.3,0.2,1.8,1.9-0.5,3.5C271.8,48.7,270.7,48.7,270.2,47.9L270.2,47.9z M272.1,51c-1-1.6,1.9-3.7,3.3-3.6
			c1.3,0.1,1.9,1.9-0.5,3.5C273.7,51.8,272.6,51.8,272.1,51L272.1,51z M279.7,50c-2.7-3.8-5-8-6.9-12c-0.5-0.8-1.4-1-2.6-0.5
			c-1.2,0.6-2.4,1.3-3.6,1.9c-1.2,0.7-1.7,1.8-1.3,2.7c2,4.4,4.6,9,7.5,13.2c0.7,0.8,1.8,0.9,2.9,0.1c1.1-0.9,2.2-1.8,3.2-2.6
			C280,51.8,280.1,50.6,279.7,50L279.7,50z"/>
		<path class="st18" d="M268.7,91.4c-8.6-7.5-16-16.5-22.2-26.7c-6.3-10.5-11-21.7-13.9-33.4c-0.5,0.3-1,0.7-1.5,1
			c-1.2,0.8-2.3,1.6-3.4,2.4c3.1,11.6,7.8,22.8,14.1,33.2c6.2,10.2,13.6,19.2,22,26.8c1.2-0.8,2.4-1.6,3.6-2.5
			C267.9,92,268.3,91.7,268.7,91.4z"/>
		<g>
			<path class="st11" d="M299.9,50c-5.1-2.3-9.9-6.9-13.5-12.9c-3.7-6.1-5.7-13.1-5.4-19.1l0-0.1l0.1,0c8.8,1,16,4.2,19.2,8.5l0,0
				l0.1,0.1c0,0.1,0.1,0.2,0.1,0.2l0,0.1l0,0.1c0.1,0.1,0.1,0.2,0.2,0.2l0,0.1l0,0c2.4,5,2.2,13.5-0.7,22.7L299.9,50L299.9,50z"/>
			<path class="st11" d="M281,18c9.2,1,16.1,4.3,19.2,8.6l0,0c0.1,0.1,0.1,0.2,0.2,0.3c0.1,0.1,0.1,0.2,0.2,0.3l0,0
				c2.4,4.9,2.3,13.2-0.7,22.7c-4.9-2.2-9.8-6.7-13.5-12.8C282.6,30.7,280.8,23.8,281,18L281,18z M280.9,17.8l0,0.2
				c-0.2,6.1,1.7,13,5.4,19.2c3.6,6,8.4,10.5,13.6,12.9l0.2,0.1l0.1-0.2c2.9-9.2,3.2-17.6,0.8-22.7l0,0l-0.1-0.2
				c0-0.1-0.1-0.2-0.2-0.2l-0.1-0.1l0-0.1c0-0.1-0.1-0.2-0.1-0.2l-0.1-0.2l0,0c-3.3-4.3-10.5-7.5-19.3-8.5L280.9,17.8L280.9,17.8z"
				/>
		</g>
		<path class="st19" d="M300.6,27.2L300.6,27.2c0-0.1-0.1-0.2-0.2-0.3l0,0l-121.9,84.4c0.1,0.1,0.1,0.2,0.2,0.3
			c5.9,9.7,15.4,14.3,21.2,10.3c0,0,0,0,0,0c1.3-0.1,27.1-1.7,67.4-29.6C297.6,71.4,306.5,39,300.6,27.2z"/>
		<g>
			<polygon class="st20" points="300.5,26.9 300.5,26.9 300.5,26.9 			"/>
		</g>
		<path class="st21" d="M267.4,92.3c30.2-20.9,39-53.3,33.2-65.1l0,0c0,0,0-0.1-0.1-0.1l0,0c3.7,8.4-8.6,35-38.8,55.9
			c-40.3,27.9-64,33.1-65.2,33.3c0,0,0,0,0,0c-5.8,4-13.8,1.9-17.8-4.8c0,0,0,0.1,0,0.1c5.9,9.7,15.4,14.3,21.2,10.3c0,0,0,0,0,0
			C201.3,121.9,227.1,120.2,267.4,92.3z"/>
		<path class="st22" d="M213.2,87.6l3.9,0.3c0,0-14.1,19.6-19.3,25.3c-5.2,5.7-9.4,9.3-15,4.8c-5.5-4.5-4.6-13.9-4.6-13.9
			L213.2,87.6z"/>
		<path class="st23" d="M190.3,109.2c-1.3,0.9-3,0.5-3.9-0.9l-2.4-4c-0.8-1.4-0.5-3.3,0.8-4.2l28.5-19.7c1.3-0.9,3-0.5,3.9,0.9
			l2.4,4c0.8,1.4,0.5,3.3-0.8,4.2L190.3,109.2z"/>
	</g>
	<g>
		<g class="st24">
			<path class="st25" d="M244.9,48c5.3,0,10.5,2.8,13.6,7.9c4.9,8,2.7,18.8-4.8,24c-2.7,1.9-5.8,2.8-8.8,2.8
				c-5.3,0-10.5-2.8-13.6-7.9c-4.9-8-2.7-18.8,4.8-24C238.8,48.9,241.9,48,244.9,48L244.9,48z M244.9,42.6L244.9,42.6L244.9,42.6
				c-4.1,0-8.1,1.3-11.6,3.7c-4.8,3.3-8.1,8.4-9.2,14.4c-1.2,5.9-0.1,12,3,17.1c3.9,6.5,10.6,10.4,17.9,10.4c4.1,0,8.1-1.3,11.6-3.7
				c4.8-3.3,8.1-8.4,9.2-14.4c1.2-5.9,0.1-12-3-17.1C258.9,46.5,252.2,42.6,244.9,42.6L244.9,42.6z"/>
		</g>
		<path class="st4" d="M244.9,84.2c-6,0-11.6-3.2-14.8-8.6c-5.3-8.7-3-20.5,5.2-26.1c2.9-2,6.2-3,9.6-3c6,0,11.6,3.2,14.8,8.6
			c2.6,4.2,3.4,9.3,2.5,14.2c-1,4.9-3.7,9.2-7.7,11.9C251.7,83.2,248.4,84.2,244.9,84.2z"/>
		<path class="st2" d="M244.9,48c5.3,0,10.5,2.8,13.6,7.9c4.9,8,2.7,18.8-4.8,24c-2.7,1.9-5.8,2.8-8.8,2.8c-5.3,0-10.5-2.8-13.6-7.9
			c-4.9-8-2.7-18.8,4.8-24C238.8,48.9,241.9,48,244.9,48L244.9,48z M244.9,44.9V48V44.9L244.9,44.9c-3.7,0-7.3,1.1-10.4,3.3
			c-4.3,3-7.2,7.5-8.3,12.9c-1.1,5.3-0.1,10.8,2.7,15.4c3.5,5.8,9.5,9.3,16.1,9.3c3.7,0,7.3-1.1,10.4-3.3c4.3-3,7.2-7.5,8.3-12.9
			c1.1-5.3,0.1-10.8-2.7-15.4C257.4,48.4,251.4,44.9,244.9,44.9L244.9,44.9z"/>
		<g class="st26">
			<path class="st25" d="M244.9,48l0,2.2h0c4.8,0,9.3,2.6,11.9,6.9c2.1,3.4,2.8,7.4,2,11.4c-0.8,4-3,7.3-6.1,9.5
				c-2.3,1.6-5,2.4-7.7,2.4c-4.8,0-9.3-2.6-11.9-6.9c-2.1-3.4-2.8-7.4-2-11.4c0.8-4,3-7.3,6.1-9.5c2.3-1.6,5-2.4,7.7-2.4L244.9,48
				L244.9,48z M244.9,48c-3,0-6.1,0.9-8.8,2.8c-7.5,5.2-9.7,15.9-4.8,24c3.1,5.1,8.3,7.9,13.6,7.9c3,0,6.1-0.9,8.8-2.8
				c7.5-5.2,9.7-15.9,4.8-24C255.4,50.8,250.2,48,244.9,48L244.9,48z"/>
		</g>
	</g>
	<path class="st11" d="M186.7,112.3c-1.2,1-2.9,0.7-3.8-0.7l-3-5c-0.8-1.4-0.4-3.2,0.9-4l30.9-18.3c1.4-0.8,3.1-0.3,4,1.1
		c0.8,1.4,0.5,3.3-0.7,4.3L186.7,112.3z"/>
	<g>
		<path class="st27" d="M233.3,69.9c-0.1-0.1-0.1-0.2-0.2-0.3c-1.9-5.8,0.2-12.2,5-15.5c2-1.4,4.4-2.1,6.8-2.1c3,0,6,1.2,8.2,3.3
			c0.2,0.2,0.4,0.4,0.5,0.5c0,0-0.1,0.1-0.1,0.1c-2.2,2.5-4.6,4.5-9.6,7.9C239.2,67.1,234.8,69.3,233.3,69.9z"/>
	</g>
	<g class="st28">
		<path class="st20" d="M196.1,98.9c1.3,2.2,2.4,4,2.4,4c0,0,2-1.6,4.5-3.6l9.7-7.8c2.5-2,3.8-4.7,3-6.1c-0.8-1.4-3.7-1.2-6.4,0.4
			L198.6,92C195.9,93.6,194.8,96.7,196.1,98.9z"/>
	</g>
</g>
<g class="st29">
	<path class="st30" d="M489.6,227.7c0,0,1.2,43.4,0.6,51.6c-0.6,8.1,8.6,6.9,9.2,6.2c0.6-0.8,14-9.1,14.2-9.5
		c0.2-0.3,3.2-9.3,3.2-9.3s-9.8-15.6-9.8-16.2c0-0.6-14.3-23.8-14.3-23.8L489.6,227.7z"/>
	<g class="st31">
		<path class="st32" d="M552.4,191.6c0,0,4.5,10,5,19.4c0,0-2.1,5.8-2.4,10s1.5,7.6,0.7,14.3c-0.8,6.8-19,36.7-19,36.7
			s-17.9-1.4-24.4-4.1c0,0-15.4-13.2-20.8-39.8c0,0-5.3-0.8-6.1-2.1c-0.8-1.3-3-14.2-2.2-17.2c0.8-3,3.1-11.7,5.4-15
			c2.4-3.3,5.9-13,11.6-15.9c5.7-3,9.9-3,12.3-3.7c2.3-0.8,3.7-4.6,13.2-2.3c9.6,2.3,15.9,4.8,18.3,6.1
			C546.5,179.4,550.1,185.4,552.4,191.6z"/>
		<path class="st33" d="M498.2,218.8c0,0,3.9-5.4,5.5-11.8c0,0-4.6-2.1-2.3-10.9c2.3-8.8,8.3-16.6,12.4-17.2
			c4.2-0.6,26.3,5.5,38.8,13.1l1.8,4.9c0,0,13.3-2.9,13.5-18.7c0,0-1.1,5.1-5.4,7.2c0,0,9.2-14.3-2.6-24.7c0,0,1.1,8-4.2,11.6
			c0,0-1.3-6.6-4.6-8.4c0,0-1.7,3.1-3.6,4.2c0,0-31.3-16.2-52.9,1.1s-15.2,54.1-9.7,70.3c5.4,16.2,5.3,25,5.3,25l-0.7-37
			c0,0-9.1-8.1-4.5-16.9c4.6-8.8,12.5-0.6,12.5,8.6"/>
		<path class="st34" d="M488.6,213.6c0,0,4.5,1.9,4,7.1l-2.3,1.7C490.2,222.4,492.6,217.6,488.6,213.6z"/>
		<path class="st33" d="M536.2,201.7l-2.2,1.4c0,0-5.5-8-18.5-5.6l-1.1-5.2C514.5,192.3,528,188.1,536.2,201.7z"/>
		<path class="st33" d="M544.5,203.8l0.4,2.7c0,0,2.4-2,6.4-0.9c3,0.8,3.8,5.9,3.8,5.9s2.4-1.1,2.4-1.3s0.1-6-5.4-7.7
			C547.5,201.1,544.5,203.8,544.5,203.8z"/>
		<path class="st35" d="M530.7,215.2l-1.7,1.1c0,0-5.1-6.6-12.3-2l-1.2-4.3C515.5,210,524.8,203.9,530.7,215.2z"/>
		<path class="st35" d="M544.2,219.9l0.5,1.7c0,0,1.3-1.9,3.5-1.3c2.2,0.6,3.1,3.3,3.1,3.3l2.4-1c0,0-0.7-4.5-4.9-5.2
			C545.6,216.8,544.2,219.9,544.2,219.9z"/>
		<path class="st34" d="M541.8,219.5c0,0,2.3,6,7,8.6c0,0,1.4,1.5,0.4,3.5s-6.7,5-8,6.1c0,0,4.2-1.9,6.1-2.5c1.9-0.7,6.9-3,4.2-7.8
			C551.6,227.5,545.5,225.6,541.8,219.5z"/>
		<path class="st2" d="M516,232.6c0,0-1.7,2.8-2.3,6.8c10.7,6.1,22.2,6.7,26.5,6.6c0.5-1.5,1-2.7,1.5-3.5
			C541.8,242.5,517.2,238.9,516,232.6z"/>
		<g>
			<path class="st36" d="M540.3,246c-2.3,0-6.6-0.1-11.7-1.2c3.1,2.8,7.1,7.2,7.6,11.4c0.5,0,0.9,0.1,1.4,0.1
				C537.6,256.3,538.8,250.3,540.3,246z"/>
			<path class="st37" d="M528.6,244.8c-4.6-0.9-9.7-2.6-14.8-5.4c-0.5,3.7,0,8.4,3.7,12.7c0,0,6.4,3.1,18.7,4.1
				C535.6,252,531.6,247.6,528.6,244.8z"/>
		</g>
	</g>
	<path class="st38" d="M656.1,94.6c0,0-4.8-0.7-8.1,3.6c-3.3,4.3-26.5,57.6-40.3,78c-10.4,15.5-52,63.3-58.5,70.5l-91.5,50.5
		c0,0-9.8,8.5-16.5,19.3c-6.7,10.8-30.3,39.8-50,59.3c-19.7,19.5-71.2,41.4-90.7,47.9v7.8h89c0,0,37-24.8,50.3-42.5
		c0,0-6,26.8-19,42.5h139.7c0,0-3.5-81.3,20.8-143.3c0,0,71.6-109.4,92.6-128.4c0,0,5.2-4.5,9.8-7c4.7-2.5,17.7-9.8,14-32.8
		S670.9,92.5,656.1,94.6z"/>
	<path class="st39" d="M544.6,249.3L481,337.1c0,0-17.7-14.5-21-41.1L544.6,249.3z"/>
	<path class="st40" d="M467.8,291.7c0,0-0.1,23.5,13.2,40.3l40.9-70.1L467.8,291.7z"/>
	<path class="st41" d="M494.8,291.4"/>
	<polygon class="st42" points="479.8,285 481.6,294.2 495.9,286.6 503.6,271.8 	"/>
	<path class="st41" d="M489.5,298.6"/>
	<path class="st42" d="M481.6,294.2l-6.6,28.1c0,0,3.8,7.3,5.6,9.3c0.1,0.1,0.3,0.3,0.3,0.3l16-27.5l-1.1-17.9L481.6,294.2z"/>
	<path class="st43" d="M667,132.1l22.8-41.2c0,0,17.8,2.3,21.8-12s-28.8-34.2-28.8-34.2S667,41.4,660.5,59c0,0,2.5,10.7,6.4,15.6
		l-12.7,24.3C654.2,99,656.2,121.7,667,132.1z"/>
	<path class="st44" d="M683.1,34.8L615-4.3c0,0-14.5,6-14.3,28l80.9,41l80.1,61c0,0,18.5,0,21-23.8L683.1,34.8z"/>
	<g class="st31">
		<path class="st7" d="M581.7,88.7c0,0,3,3.3,8.6,3.9c5.6,0.6,8.1,10.2,8.1,10.2s-2.3,2.3-3.7,1.2c0,0-1.1-5-3.8-6.6
			c-4.6-2.6-7.4,0.3-12.2-7.4L581.7,88.7"/>
		<path class="st7" d="M598,101.4c0,0-0.4,1.3-3.6,1.6c0,0-0.9,1.4,0.2,4.4c0.9,2.4,2.5,2.7,2.5,2.7s2.7,0.4,4.6-2.1
			C601.6,108,602,103.4,598,101.4z"/>
		<path class="st7" d="M596.8,116.8c0,0-0.2,1.8-0.6,3.1c1.4,0.4,3.1,0.7,4.9,0.4c0.3-1.4,0.4-4-0.8-7.6c0,0,1.8,4.4,2,7.4
			c0.3-0.1,0.7-0.2,1-0.3c0.4-0.1,0.7-0.3,1.1-0.5c-0.3-1-1.1-2.8-2.3-5.1c0,0,1.9,2.6,3,4.7c1-0.7,1.7-1.5,2.2-2.2
			c-0.2-0.7-0.6-1.5-1.3-2.2c0,0,0.9,0.2,1.7,1.2c0.5-1.5,0.2-2.8,0.2-2.8s-3.4-1.1-6.3-4.8c-2.8-3.7-4.6,1.1-4.6,1.1
			s-1.1,6.7-4.1,9.3c0,0,0.9,0.6,2.2,1.1C595.7,118.9,596.5,117.8,596.8,116.8z"/>
		<g>
			<polygon class="st45" points="515.3,136.8 419.2,114.1 478.8,48.7 599.3,78.2 			"/>
			<g>
				<path class="st46" d="M467,128.1l-2.2-23.6c0,0,4.8-15.5,28.3-21.9c23.5-6.3,43.8,2.8,48.8,8.1l4.3,29.5L467,128.1z"/>
				<path class="st47" d="M510.5,142.2c10.4-1.5,36.8-7.7,35.7-21.9c-1.1-14.2-37.1-20.5-54.1-5.2c0,0-7.5-1.9-14.2-0.5
					c-6.2,1.3-13.2,6.4-10.3,16.1C471.3,143.3,493.9,144.7,510.5,142.2z"/>
			</g>
		</g>
	</g>
	<path class="st43" d="M675.8,46.8c0,0,3-11.1,8.1-16.5c0,0,10-3,15.6,5.3c0,0-5.1,11.8-11,18C682.6,59.8,675.8,46.8,675.8,46.8z"/>
	<path class="st43" d="M698.9,34.8c0,0,8.3-1,13.1,8.9c0,0-4,16.4-16.8,22.4c0,0-4,0.1-8.8-3.6c-4.8-3.7-3.4-6-3.4-6
		s1.5-6.4,2.4-7.3c0.9-0.9,7.8-7,8.1-7.5C693.8,41.2,698.9,34.8,698.9,34.8z"/>
	<path class="st43" d="M711.1,44.3c0,0,7.4,1,10.4,9.3c0,0-2.6,15.3-19.3,20c0,0-7.1-1.3-8.9-8.6s2.6-14.2,3.1-14.5
		C697,50.1,711.1,44.3,711.1,44.3z"/>
	<path class="st43" d="M720.3,55.3c0,0,5.3,1.5,6.5,7.8c0,0-3.3,13-17.8,16.9c0,0-5.9-2.2-7.7-7.8c-1.8-5.6,2.7-7.4,3.3-7.7
		c0.6-0.3,8.8-4.8,9.3-5.2C714.3,59.1,720.3,55.3,720.3,55.3z"/>
	<path class="st43" d="M668,48.4c0,0,6.5-5.6,14.2-3.7c7.7,1.9,13,15.3,13,15.3s-3.6,7.5-12.9,7.6c0,0-7.5-5.4-9.8-15.4L668,48.4z"
		/>
	<path class="st43" d="M681.3,64c0,0-11.2-2-14.8-4.1s-4.9-3.2-4.9-3.2s2.4-5.5,7.6-9s9.8,7,10,7.2S681.3,64,681.3,64z"/>
	<path class="st48" d="M654.3,97c0,0,7.2,39.4,24.8,40.2c16.5,0.7,8.5-23.2,8.5-23.2s9.7,24.3-4.2,28.2
		C664.9,147.4,652.3,112.3,654.3,97z"/>
	<path class="st48" d="M543.2,91.5l3.2,21.7l48.5-33.8C594.9,79.4,565.6,96.2,543.2,91.5z"/>
	<path class="st48" d="M463.8,105.9l2.2,18l-36.8-8.5C429.2,115.4,448.9,116,463.8,105.9z"/>
	<path class="st49" d="M541,91.7c0.1,0.1,3,21.2,3,21.2s-3.6-4.3-10.4-6.2l-1.7-20.3C531.8,86.4,537.7,88.3,541,91.7z"/>
	<polygon class="st49" points="531.6,104.3 529.9,83.7 527.4,82.6 529.1,103.9 	"/>
	<path class="st48" d="M466.9,122.4l-1.7-17.7c0,0,2.8-6.7,7.5-10.4l2.9,20.5C475.7,114.7,469.7,116,466.9,122.4z"/>
	<path class="st48" d="M499,142.3c0,0-13.2-0.6-12.9-8.7c0.4-13.3,45.9-29.5,59.4-11.7c0,0-0.1-11-19.2-14
		c-12.1-1.9-27.8,2.1-33.9,8.8c0,0-15.9-4.6-21.6,2.7C461.9,130.8,474,143.9,499,142.3z"/>
	<path class="st50" d="M680.6,110l-11.5,20.6c0,0,7.2,7.7,13,5.2C687.8,133.2,688.8,116.4,680.6,110z"/>
	<path class="st42" d="M480.7,285.2l1.5,8l7-4c0,0-4.3-1.6-0.7-8.3L480.7,285.2z"/>
	<path class="st51" d="M489.5,291.4l-7.3,3.6l-6.4,26.7l5.3,8.3c0,0,4.2-7.3,5.4-9.1C486.4,320.9,480.9,309.2,489.5,291.4z"/>
	<path class="st52" d="M440.8,384.8c0,0,7-26,7.3-37.7c0,0-36,66-99.3,82.7h38.7C387.5,429.8,424.5,406.8,440.8,384.8z"/>
	<path class="st52" d="M684.9,150.2c0,0-18.4,4.8-28.1-4.8c0,0,2.8,9,6.8,11s-28.3,43.1-37,54.2c-8.8,11.1-38.3,58.3-59,76.5
		s-22.9,22.2-22.9,22.2s11.2-2.1,12.4,6.7c1.2,8.8-7,88.4-5,113.8h6.3c0,0-5-59.3,12.8-123.1c0,0,3.3-12.9,7-19.1l53.8-78.2
		C648.5,187,671,153.7,684.9,150.2z"/>
	<path class="st53" d="M693,61.3c0,0-4.3,4.5-10.7,4.8c0,0-7.3-5.4-7.9-14.2C674.3,51.9,683.1,64.5,693,61.3z"/>
	<path class="st53" d="M681.3,35.6c0,0-2.6,5.2-3.7,7.9c0,0,3.3-0.4,6.8,0.8c3.4,1.1,6.5,4.6,6.5,4.6s3.9-5.2,4.8-7.2
		C695.6,41.8,686.8,44.2,681.3,35.6z"/>
	<path class="st53" d="M684.9,68.6l22.4,16.7c0,0-4.9,3.8-11.2,3.9C696,89.2,697.4,79.6,684.9,68.6z"/>
	<path class="st51" d="M705.6,85.1l-11.8-9.2c0,0,7.6,8,7.1,11.6C700.9,87.5,704.1,86.9,705.6,85.1z"/>
	<path class="st53" d="M693.9,47.4c0,0-1,2.4-2.4,3.8c0,0,4,6.4,4.6,8.2c0.6,1.8-3.8,5-4.3,5.4c0,0,2.7,0.6,3.5,0.8
		c0,0,6-2.9,10.4-9.6C705.6,55.9,696.3,56.7,693.9,47.4z"/>
	<path class="st53" d="M704.1,60.4c0,0-4.7,4.7-8.5,6h-1.3c0,0,2.4,5.5,7.8,6.5c0,0,3.2-0.6,6.1-2.5
		C708.3,70.4,701.9,69.2,704.1,60.4z"/>
	<path class="st53" d="M712.4,68.8c0,0-5,4.1-9.8,5c0,0,1.6,4.1,6.5,5.6c0,0,4.5-1.4,6.5-2.8C715.5,76.6,711.2,74.3,712.4,68.8z"/>
	<polygon class="st53" points="667.5,128.9 689,90.6 685.7,88 686.2,90.3 665.2,125.1 	"/>
	<path class="st53" d="M661.5,59.3c0,0,2.5,10.7,6.1,14.8l1-1.2C668.7,73,662.2,62,661.5,59.3z"/>
	<path class="st54" d="M694.6,59.7c0,0-3.9-11.2-12.3-14.3c0,0-4.2-0.8-8,0.6c0,0,5.7,0.4,8.4,1.8c6.3,3.4,10.7,12.9,10.7,12.9"/>
	<path class="st48" d="M654.1,96c0,0-2.6,1.2-3.1,5.2c-0.5,4.1,1.2,25.4,8.8,33.8c0,0-11.9-9.2-11.7-30.8l-20.7,41.3l20.8-45.5
		C648.2,99.9,649.7,95.6,654.1,96z"/>
	<path class="st51" d="M687.6,66.7l74.5,56.6c0,0,8.5-0.5,14.5-7.4c0,0-24.5-10.1-61.2-37.5c0,0-5.9,1.9-7.3,1.7c0,0-5.1-2.1-7-7
		c0,0-5.7-1-8.3-7.4l-2.3-1.2C690.7,64.5,688.8,66.7,687.6,66.7z"/>
	<path class="st51" d="M668.7,46.9c0,0-4.3,2.4-6.4,6l-59.5-30.1c0,0-1.5-7.6,3.3-15.3C606,7.6,655.8,39.9,668.7,46.9z"/>
	<path class="st51" d="M582,90.9l-1.6,1c0,0,2.1,2.8,5,3.3c2.9,0.5,7.4,0.5,9.3,7.3c0,0,1.2-0.2,1.7-0.7c0,0-1.8-5.8-5-6.9
		C588.1,93.7,583.5,93.7,582,90.9z"/>
	<path class="st44" d="M594.7,103.4c0,0-1.1,3.3,2.1,6.4c0,0,1.2,0.2,2.3-0.4c0,0-2.6-2.4-2.3-6.6
		C596.9,103,595.5,103.4,594.7,103.4z"/>
	<path class="st51" d="M599.5,110c0,0-0.9,0.6-2.5,0.5c0,0-0.7,5.1-3.8,7.8c0,0,1.1,0.7,1.7,0.9c0,0,1.6-1.8,1.9-3.5
		c0,0,0.4,2-0.2,3.8c0,0,1.7,0.7,2.4,0.5c0,0,1-4.6-0.2-8.7c0,0,1.4,4.6,1.3,7.5c0,0,1-1.7-0.7-7.6l0.8,2l-0.6-3c0,0,2.6,5,3,9.2
		c0,0,1.2-0.3,1.4-0.5C603.9,119.1,602.2,114.3,599.5,110z"/>
	<path class="st55" d="M554.8,196.2c0,0,9.8-3.4,11.5-11.5c0,0-5.1,4-11.8,4.7c0,0,13.3-4.2,9.9-19.7c0,0-3.5,10.2-9.9,12.8
		c0,0,2.4-10-1.7-15.4c0,0-1.8,10.3-13.3,13.6c0,0-5.4,0.5-14.2-1.5c-8.8-2-9.8-2.3-12.5-1.3c-2.7,1-3.5,2.7-3.5,2.7s2.3-2.1,5.8-2
		c3.6,0.1,25.5,5.2,37.9,13.1C553.1,191.7,554.8,195.2,554.8,196.2z"/>
	<path class="st55" d="M481.3,202.1c0,0-2.3,14.1,2.4,29.5c4.7,15.4,5.9,21.8,5.9,21.8l-1-25.1c0,0-5.4-4.4-5.4-12.4
		c0.1-9.6,8.2-11.6,11.1-7.9c2.9,3.6,4.2,8.4,4.2,8.4s3.9-6.3,3.8-8.5c0,0-3.1-4.5-2.3-10.4C500,197.4,490,203.1,481.3,202.1z"/>
	<path class="st53" d="M491.7,233.8c0,0,8,24.6,18.8,33.3L505,270C505,270,493.2,251.8,491.7,233.8z"/>
	<path class="st53" d="M547.8,233c0,0-5.8,3.8-6.8,4.9c0,0-2.3-0.2-3.6-2.1l8.4-3.5L547.8,233z"/>
</g>
</svg>
